<svg version="1.1" id="Layer_1" xmlns="http://www.w3.org/2000/svg" xmlns:xlink="http://www.w3.org/1999/xlink" x="0px" y="0px"
	 width="100%" viewBox="0 0 378 128" enable-background="new 0 0 378 128" xml:space="preserve">
<path fill="#010101" opacity="1.000000" stroke="none" 
	d="
M293.000000,129.000000 
	C195.333344,129.000000 98.166687,129.000000 1.000026,129.000000 
	C1.000017,86.333351 1.000017,43.666698 1.000009,1.000038 
	C126.999969,1.000025 252.999939,1.000025 378.999939,1.000013 
	C378.999939,43.666630 378.999939,86.333260 378.999969,128.999939 
	C350.500000,129.000000 322.000000,129.000000 293.000000,129.000000 
M192.718597,123.224060 
	C193.464996,124.237312 194.211395,125.250565 194.957794,126.263817 
	C195.337784,126.086853 195.717773,125.909897 196.097763,125.732941 
	C195.961258,122.837944 195.824753,119.942947 195.688263,117.047958 
	C195.299057,117.066612 194.909866,117.085266 194.520676,117.103920 
	C194.057358,118.684845 193.594040,120.265762 193.116730,121.088608 
	C192.145721,119.617668 191.174713,118.146729 190.203720,116.675789 
	C189.903824,116.859055 189.603943,117.042313 189.304047,117.225578 
	C189.304047,120.104202 189.304047,122.982834 189.304047,126.430016 
	C190.641174,124.745369 191.516968,123.641960 192.718597,123.224060 
M183.913300,34.550953 
	C180.120010,33.864376 178.994843,35.673363 178.946594,39.247047 
	C178.895645,43.020931 178.248047,46.786758 177.861084,50.556107 
	C177.247421,50.550438 176.633759,50.544769 176.020096,50.539101 
	C175.350708,45.248764 174.681320,39.958427 174.016373,34.703274 
	C165.276733,34.703274 156.853912,34.703274 148.210388,34.703274 
	C148.210388,54.243961 148.210388,73.469704 148.210388,92.646164 
	C154.509872,92.646164 160.556412,92.646164 167.433502,92.646164 
	C167.433502,86.856934 167.433502,81.406952 167.433502,75.956970 
	C167.916687,75.957207 168.399872,75.957443 168.883057,75.957680 
	C169.682251,81.578781 170.481430,87.199883 171.271484,92.756744 
	C174.677551,92.756744 177.618652,92.756744 180.613907,92.756744 
	C181.671722,87.036362 182.687485,81.543373 183.703247,76.050392 
	C184.192856,76.120575 184.682465,76.190750 185.172073,76.260925 
	C185.172073,81.676796 185.172073,87.092659 185.172073,92.642319 
	C192.212296,92.642319 198.725006,92.642319 205.038757,92.642319 
	C205.038757,73.173996 205.038757,54.069633 205.038757,34.551003 
	C198.099884,34.551003 191.465912,34.551003 183.913300,34.550953 
M373.997742,102.499878 
	C373.997742,70.076843 373.997742,37.653812 373.997742,5.256971 
	C251.052444,5.256971 128.669403,5.256971 6.252641,5.256971 
	C6.252641,44.909935 6.252641,84.307724 6.252641,123.781281 
	C38.256607,123.781281 70.009819,123.781281 101.835052,123.781281 
	C101.835052,122.490021 101.835052,121.416954 101.835052,119.973160 
	C71.218666,119.973160 40.802464,119.973160 10.193615,119.973160 
	C10.193615,82.867653 10.193615,46.135376 10.193615,9.340564 
	C130.222275,9.340564 250.057693,9.340564 369.665466,9.340564 
	C369.665466,46.417122 369.665466,83.150246 369.665466,120.083817 
	C339.036835,120.083817 308.743896,120.083817 278.260986,120.083817 
	C278.260986,121.458977 278.260986,122.624969 278.260986,123.712105 
	C310.301178,123.712105 342.039246,123.712105 373.997742,123.712105 
	C373.997742,116.785316 373.997742,110.142555 373.997742,102.499878 
M104.158150,85.810425 
	C105.807480,76.136604 107.402756,66.452988 109.154068,56.797665 
	C109.484032,54.978497 110.435623,53.272083 111.100365,51.513638 
	C111.736336,51.632973 112.372314,51.752308 113.008286,51.871639 
	C114.032715,59.468491 115.057137,67.065346 116.136749,75.071442 
	C113.640984,75.446175 111.599243,75.752739 109.362457,76.088585 
	C108.854500,81.350906 108.364868,86.423286 107.858604,91.668022 
	C118.477356,91.668022 128.647568,91.668022 138.834824,91.668022 
	C135.493378,72.088829 132.208466,52.840832 128.984116,33.947609 
	C117.006325,33.947609 105.765320,33.947609 94.808510,33.947609 
	C91.305359,53.463100 87.879425,72.548439 84.429619,91.766739 
	C90.785347,91.766739 97.048553,91.766739 103.649147,91.766739 
	C103.796303,89.941223 103.927086,88.318710 104.158150,85.810425 
M306.932465,50.331203 
	C306.932465,44.882214 306.932465,39.433228 306.932465,33.841022 
	C289.215576,33.841022 272.172363,33.841022 254.791550,33.841022 
	C254.791550,37.904346 254.791534,41.698574 254.791534,45.492805 
	C254.791534,49.255302 254.791550,53.017796 254.791550,57.000530 
	C257.115051,57.000530 258.435089,56.989910 259.754913,57.002304 
	C266.806122,57.068527 267.791290,57.947300 267.785522,65.157539 
	C267.780212,71.811356 267.469727,78.464638 267.323090,85.118797 
	C267.273956,87.348579 267.315308,89.580345 267.315308,91.595367 
	C277.025604,91.595367 285.914490,91.595367 295.018524,91.595367 
	C295.018524,81.545853 295.094543,71.899788 294.980377,62.255974 
	C294.935883,58.497532 296.245148,56.617638 300.238922,57.002750 
	C302.289612,57.200500 304.375061,57.037460 306.599518,57.037460 
	C306.732513,54.575336 306.821320,52.931881 306.932465,50.331203 
M231.496735,33.561550 
	C227.045670,33.561550 222.594589,33.561550 218.153107,33.561550 
	C218.153107,45.953873 218.153107,57.847923 218.153107,69.930740 
	C225.231400,69.930740 231.844528,70.018806 238.449020,69.820007 
	C239.280807,69.794968 240.466827,68.389183 240.785919,67.397072 
	C241.336792,65.684303 241.295151,63.787796 241.573471,61.979359 
	C243.002640,52.693180 244.454529,43.410496 245.986374,33.561523 
	C241.086411,33.561523 236.789108,33.561523 231.496735,33.561550 
M241.119873,91.378258 
	C241.119873,85.945747 241.119873,80.513237 241.119873,75.078270 
	C233.117584,75.078270 225.895386,75.078270 218.395432,75.078270 
	C218.395432,80.833527 218.395432,86.214043 218.395432,92.008682 
	C225.843979,92.008682 233.105057,92.008682 241.119873,91.378258 
M159.589172,125.929840 
	C161.344009,125.929840 163.098846,125.929840 164.805893,125.929840 
	C165.636032,118.544617 164.654541,117.090340 159.061569,117.374779 
	C159.061569,119.968491 159.061569,122.578773 159.589172,125.929840 
M179.091843,119.312172 
	C177.170258,116.042397 175.839523,118.361809 174.944153,119.976234 
	C173.964066,121.743492 173.527435,123.812141 173.105133,125.026917 
	C175.913239,125.026917 178.298813,125.026917 181.042068,125.026917 
	C180.579056,123.685028 179.954224,121.874100 179.091843,119.312172 
M214.822418,120.678574 
	C214.822418,122.458015 214.822418,124.237465 214.822418,126.016907 
	C215.297775,126.049377 215.773132,126.081856 216.248489,126.114326 
	C216.581421,125.289467 216.914337,124.464600 217.241867,123.653122 
	C218.483261,124.506882 219.796768,125.410240 221.274597,126.426605 
	C220.412430,123.354782 219.721115,120.891685 219.112701,118.724007 
	C217.857529,118.288727 216.484879,117.812714 214.981583,117.291389 
	C214.924759,118.200668 214.874008,119.012642 214.822418,120.678574 
z"/>
<path fill="#FBFBFB" opacity="1.000000" stroke="none" 
	d="
M184.372620,34.550980 
	C191.465912,34.551003 198.099884,34.551003 205.038757,34.551003 
	C205.038757,54.069633 205.038757,73.173996 205.038757,92.642319 
	C198.725006,92.642319 192.212296,92.642319 185.172073,92.642319 
	C185.172073,87.092659 185.172073,81.676796 185.172073,76.260925 
	C184.682465,76.190750 184.192856,76.120575 183.703247,76.050392 
	C182.687485,81.543373 181.671722,87.036362 180.613907,92.756744 
	C177.618652,92.756744 174.677551,92.756744 171.271484,92.756744 
	C170.481430,87.199883 169.682251,81.578781 168.883057,75.957680 
	C168.399872,75.957443 167.916687,75.957207 167.433502,75.956970 
	C167.433502,81.406952 167.433502,86.856934 167.433502,92.646164 
	C160.556412,92.646164 154.509872,92.646164 148.210388,92.646164 
	C148.210388,73.469704 148.210388,54.243961 148.210388,34.703274 
	C156.853912,34.703274 165.276733,34.703274 174.016373,34.703274 
	C174.681320,39.958427 175.350708,45.248764 176.020096,50.539101 
	C176.633759,50.544769 177.247421,50.550438 177.861084,50.556107 
	C178.248047,46.786758 178.895645,43.020931 178.946594,39.247047 
	C178.994843,35.673363 180.120010,33.864376 184.372620,34.550980 
z"/>
<path fill="#FFFFFF" opacity="1.000000" stroke="none" 
	d="
M373.997742,102.999840 
	C373.997742,110.142555 373.997742,116.785316 373.997742,123.712105 
	C342.039246,123.712105 310.301178,123.712105 278.260986,123.712105 
	C278.260986,122.624969 278.260986,121.458977 278.260986,120.083817 
	C308.743896,120.083817 339.036835,120.083817 369.665466,120.083817 
	C369.665466,83.150246 369.665466,46.417122 369.665466,9.340564 
	C250.057693,9.340564 130.222275,9.340564 10.193615,9.340564 
	C10.193615,46.135376 10.193615,82.867653 10.193615,119.973160 
	C40.802464,119.973160 71.218666,119.973160 101.835052,119.973160 
	C101.835052,121.416954 101.835052,122.490021 101.835052,123.781281 
	C70.009819,123.781281 38.256607,123.781281 6.252641,123.781281 
	C6.252641,84.307724 6.252641,44.909935 6.252641,5.256971 
	C128.669403,5.256971 251.052444,5.256971 373.997742,5.256971 
	C373.997742,37.653812 373.997742,70.076843 373.997742,102.999840 
z"/>
<path fill="#FCFCFC" opacity="1.000000" stroke="none" 
	d="
M104.108017,86.253311 
	C103.927086,88.318710 103.796303,89.941223 103.649147,91.766739 
	C97.048553,91.766739 90.785347,91.766739 84.429619,91.766739 
	C87.879425,72.548439 91.305359,53.463100 94.808510,33.947609 
	C105.765320,33.947609 117.006325,33.947609 128.984116,33.947609 
	C132.208466,52.840832 135.493378,72.088829 138.834824,91.668022 
	C128.647568,91.668022 118.477356,91.668022 107.858604,91.668022 
	C108.364868,86.423286 108.854500,81.350906 109.362457,76.088585 
	C111.599243,75.752739 113.640984,75.446175 116.136749,75.071442 
	C115.057137,67.065346 114.032715,59.468491 113.008286,51.871639 
	C112.372314,51.752308 111.736336,51.632973 111.100365,51.513638 
	C110.435623,53.272083 109.484032,54.978497 109.154068,56.797665 
	C107.402756,66.452988 105.807480,76.136604 104.108017,86.253311 
z"/>
<path fill="#FDFDFD" opacity="1.000000" stroke="none" 
	d="
M306.921265,50.809814 
	C306.821320,52.931881 306.732513,54.575336 306.599518,57.037460 
	C304.375061,57.037460 302.289612,57.200500 300.238922,57.002750 
	C296.245148,56.617638 294.935883,58.497532 294.980377,62.255974 
	C295.094543,71.899788 295.018524,81.545853 295.018524,91.595367 
	C285.914490,91.595367 277.025604,91.595367 267.315308,91.595367 
	C267.315308,89.580345 267.273956,87.348579 267.323090,85.118797 
	C267.469727,78.464638 267.780212,71.811356 267.785522,65.157539 
	C267.791290,57.947300 266.806122,57.068527 259.754913,57.002304 
	C258.435089,56.989910 257.115051,57.000530 254.791550,57.000530 
	C254.791550,53.017796 254.791534,49.255302 254.791534,45.492805 
	C254.791534,41.698574 254.791550,37.904346 254.791550,33.841022 
	C272.172363,33.841022 289.215576,33.841022 306.932465,33.841022 
	C306.932465,39.433228 306.932465,44.882214 306.921265,50.809814 
z"/>
<path fill="#FDFDFD" opacity="1.000000" stroke="none" 
	d="
M231.994263,33.561539 
	C236.789108,33.561523 241.086411,33.561523 245.986374,33.561523 
	C244.454529,43.410496 243.002640,52.693180 241.573471,61.979359 
	C241.295151,63.787796 241.336792,65.684303 240.785919,67.397072 
	C240.466827,68.389183 239.280807,69.794968 238.449020,69.820007 
	C231.844528,70.018806 225.231400,69.930740 218.153107,69.930740 
	C218.153107,57.847923 218.153107,45.953873 218.153107,33.561550 
	C222.594589,33.561550 227.045670,33.561550 231.994263,33.561539 
z"/>
<path fill="#FCFCFC" opacity="1.000000" stroke="none" 
	d="
M240.742996,91.693466 
	C233.105057,92.008682 225.843979,92.008682 218.395432,92.008682 
	C218.395432,86.214043 218.395432,80.833527 218.395432,75.078270 
	C225.895386,75.078270 233.117584,75.078270 241.119873,75.078270 
	C241.119873,80.513237 241.119873,85.945747 240.742996,91.693466 
z"/>
<path fill="#E3E3E3" opacity="1.000000" stroke="none" 
	d="
M159.325378,125.559448 
	C159.061569,122.578773 159.061569,119.968491 159.061569,117.374779 
	C164.654541,117.090340 165.636032,118.544617 164.805893,125.929840 
	C163.098846,125.929840 161.344009,125.929840 159.325378,125.559448 
z"/>
<path fill="#DDDDDD" opacity="1.000000" stroke="none" 
	d="
M179.210602,119.687668 
	C179.954224,121.874100 180.579056,123.685028 181.042068,125.026917 
	C178.298813,125.026917 175.913239,125.026917 173.105133,125.026917 
	C173.527435,123.812141 173.964066,121.743492 174.944153,119.976234 
	C175.839523,118.361809 177.170258,116.042397 179.210602,119.687668 
z"/>
<path fill="#DFDFDF" opacity="1.000000" stroke="none" 
	d="
M214.822845,120.251587 
	C214.874008,119.012642 214.924759,118.200668 214.981583,117.291389 
	C216.484879,117.812714 217.857529,118.288727 219.112701,118.724007 
	C219.721115,120.891685 220.412430,123.354782 221.274597,126.426605 
	C219.796768,125.410240 218.483261,124.506882 217.241867,123.653122 
	C216.914337,124.464600 216.581421,125.289467 216.248489,126.114326 
	C215.773132,126.081856 215.297775,126.049377 214.822418,126.016907 
	C214.822418,124.237465 214.822418,122.458015 214.822845,120.251587 
z"/>
<path fill="#EAEAEA" opacity="1.000000" stroke="none" 
	d="
M192.392761,122.538559 
	C191.516968,123.641960 190.641174,124.745369 189.304047,126.430016 
	C189.304047,122.982834 189.304047,120.104202 189.304047,117.225578 
	C189.603943,117.042313 189.903824,116.859055 190.203720,116.675789 
	C191.174713,118.146729 192.145721,119.617668 192.940155,121.641594 
	C192.639969,122.309235 192.516373,122.423897 192.392761,122.538559 
z"/>
<path fill="#EAEAEA" opacity="1.000000" stroke="none" 
	d="
M192.947144,122.020630 
	C193.594040,120.265762 194.057358,118.684845 194.520676,117.103920 
	C194.909866,117.085266 195.299057,117.066612 195.688263,117.047958 
	C195.824753,119.942947 195.961258,122.837944 196.097763,125.732941 
	C195.717773,125.909897 195.337784,126.086853 194.957794,126.263817 
	C194.211395,125.250565 193.464996,124.237312 192.555679,122.881317 
	C192.516373,122.423897 192.639969,122.309235 192.947144,122.020630 
z"/>
</svg>